<?xml version="1.0" encoding="UTF-8"?>
<svg width="189px" height="54px" viewBox="0 0 189 54" version="1.1" xmlns="http://www.w3.org/2000/svg" xmlns:xlink="http://www.w3.org/1999/xlink">
    <!-- Generator: Sketch 48.2 (47327) - http://www.bohemiancoding.com/sketch -->
    <title>Logo</title>
    <desc>Created with Sketch.</desc>
    <defs></defs>
    <g id="Logo" stroke="none" stroke-width="1" fill="none" fill-rule="evenodd">
        <g fill-rule="nonzero" id="Group">
            <g>
                <path d="M21.49,37.42 C21.49,37.42 11.93,40.09 10.55,46.15 C9.17,52.21 15.48,53.39 15.48,53.39 C15.48,53.39 13.06,43.39 21.48,37.39" id="Shape" fill="#FBB034"></path>
                <path d="M31.46,23.09 C30.2862595,21.6247672 28.568968,20.697574 26.7,20.52 L26.5,20.52 C23.89,20.15 19.71,20.4 14.15,24.7 C7.91,29.53 3.74,35.5 6.44,45.48 C6.44,45.48 8.86,37.83 15.68,34.56 C18.22,33.35 24.03,34.31 25.35,34.44 C27.9291203,34.6841711 30.4322068,33.483931 31.8566493,31.3200353 C33.2810917,29.1561396 33.3939428,26.3824628 32.15,24.11 C31.9638488,23.7284481 31.7319443,23.3923546 31.46,23.09 Z" id="Shape" fill="#8DC63F"></path>
                <path d="M32.49,1.92 C31.4088483,1.05366767 30.1127262,0.497199211 28.74,0.31 L28.52,0.31 L28.36,0.31 C27.978836,0.258141158 27.594673,0.231416773 27.21,0.23 L26.93,0.23 C25.8953988,0.246150097 24.8657767,0.376948995 23.86,0.62 C16.7385149,2.43293768 10.3614142,6.42561806 5.62,12.04 C0.14,18.68 -1.46,27.09 1.82,35.85 C3.39456595,29.2814697 7.35426,23.532607 12.93,19.72 C18.93,15.47 24.61,17.12 26.73,17.12 C31.63,17.12 36.1,13.95 36.1,9.05 C36.1009875,6.23400764 34.7602825,3.58602256 32.49,1.92 Z" id="Shape" fill="#00AAEF"></path>
                <path d="M59.26,30.27 L43.47,30.27 L40.87,37.4 L36.93,37.4 L41.83,24.09 C42.37,22.61 43.6833333,21.4766667 45.77,20.69 C47.3649911,20.0752034 49.060636,19.7632048 50.77,19.77 L54.6,19.77 L53.4,23.07 C51.4,23.07 50.01,23.12 49.18,23.21 C47.02,23.44 45.79,23.95 45.5,24.74 L44.69,26.97 L60.49,26.97 L59.26,30.27 Z" id="Shape" fill="#00AAEF"></path>
                <polygon id="Shape" fill="#00AAEF" points="62.93 37.42 59.03 37.42 65.51 19.62 69.4 19.62"></polygon>
                <path d="M86.2,32.97 C85.5479987,34.7585352 84.0859319,36.1315422 82.26,36.67 C80.6049507,37.1544307 78.8836489,37.3738124 77.16,37.32 L72.82,37.32 C67.8266667,37.32 65.8566667,35.87 66.91,32.97 L70.46,23.21 L74.19,23.21 L70.69,32.83 C70.4,33.65 71.44,34.06 73.82,34.06 L78.55,34.06 C80.87,34.06 82.17,33.66 82.46,32.87 L85.97,23.21 L89.75,23.21 L86.2,32.97 Z" id="Shape" fill="#00AAEF"></path>
                <path d="M96.93,19.75 C96.720142,20.302966 96.309492,20.7564664 95.78,21.02 C95.2993622,21.2975121 94.7549837,21.4456658 94.2,21.45 C93.7332753,21.4814397 93.2730826,21.3268437 92.92,21.02 C92.5910082,20.6690538 92.5152082,20.1504222 92.73,19.72 C92.9385783,19.1620412 93.3440565,18.6996539 93.87,18.42 C94.3487997,18.1381013 94.8943779,17.9896212 95.45,17.99 C95.9222616,17.9572928 96.3865909,18.1241612 96.73,18.45 C97.0651316,18.797308 97.1452411,19.3180193 96.93,19.75 Z" id="Shape" fill="#00AAEF"></path>
                <polygon id="Shape" fill="#00AAEF" points="90.92 37.32 87.19 37.32 92.17 23.63 95.9 23.63"></polygon>
                <path d="M114.47,32.84 C113.727809,34.5591362 112.26363,35.8622554 110.47,36.4 C108.836658,37.014399 107.105065,37.3261535 105.36,37.32 L100.93,37.32 C96.05,37.32 94.1066667,35.9466667 95.1,33.2 L97.03,27.9 C98.13,24.9 101.106667,23.3966667 105.96,23.39 L114.23,23.39 L115.58,19.66 L119.32,19.66 L114.47,32.84 Z M110.76,32.79 L112.99,26.66 L104.54,26.66 C102.29,26.66 101.01,27.09 100.69,27.96 L98.99,32.64 C98.64,33.64 99.39,34.07 101.24,34.06 L106.24,34.06 C108.93,34.09 110.45,33.63 110.76,32.79 Z" id="Shape" fill="#00AAEF"></path>
                <path d="M136.67,32.46 C135.583333,35.4666667 132.806667,36.97 128.34,36.97 L119.69,36.97 L118.32,40.73 L114.59,40.73 L119.44,27.38 C120.486667,24.4866667 123.366667,23.04 128.08,23.04 L132.7,23.04 C137.633333,23.04 139.576667,24.4733333 138.53,27.34 L136.67,32.46 Z M132.9,32.51 L134.76,27.38 C135.02,26.67 134.21,26.31 132.33,26.31 L127.01,26.31 C124.72,26.31 123.43,26.69 123.15,27.45 L120.87,33.72 L129.64,33.72 C131.52,33.72 132.6,33.31 132.93,32.51 L132.9,32.51 Z" id="Shape" fill="#8DC63F"></path>
                <path d="M158.61,32.73 C157.55,35.65 154.883333,37.11 150.61,37.11 L143.51,37.11 C142.143018,37.1628143 140.787575,36.8412424 139.59,36.18 C138.368198,35.5748585 137.856594,34.1023285 138.44,32.87 L139.05,31.19 C139.671403,29.6082757 140.942584,28.3698762 142.54,27.79 C143.992925,27.1686457 145.559932,26.8586508 147.14,26.88 L156.67,26.88 C156.83,26.44 156.13,24.99 154.58,24.99 L150.52,24.99 L151.66,21.85 L155.72,21.85 C157.091803,21.7580183 158.459097,22.08589 159.64,22.79 C160.76,23.57 161.03,25.97 160.46,27.55 L158.61,32.73 Z M155.45,31.16 L155.6,30.76 L155.82,30.14 L145.93,30.14 C144.12,30.14 143.04,30.63 142.69,31.59 L142.33,32.59 C142.02,33.44 142.8,33.87 144.66,33.87 L152.15,33.87 C152.934979,33.9560526 153.725058,33.7611899 154.38,33.32 C154.875211,32.6773516 155.238815,31.9433463 155.45,31.16 Z" id="Shape" fill="#8DC63F"></path>
                <path d="M178.14,36.48 C177.48,38.3 175.64,41.1 173.5,41.74 C171.757601,42.192258 169.959104,42.3909683 168.16,42.33 L165.6,42.33 L166.77,39.13 L170.66,39.13 C172.107654,39.0025345 173.418237,38.222075 174.22,37.01 L165.93,37.01 C161.263333,37.01 159.466667,35.56 160.54,32.66 L164.05,23.02 L167.78,23.02 L164.32,32.52 C164.02,33.35 164.95,33.76 167.11,33.76 L175.39,33.76 L179.3,23.02 L183.03,23.02 L178.14,36.48 Z" id="Shape" fill="#8DC63F"></path>
                <path d="M185.98,23.01 L185.98,23.39 L185.24,23.39 L185.24,25.32 L184.78,25.32 L184.78,23.39 L184.04,23.39 L184.04,23.01 L185.98,23.01 Z M188.48,25.32 L188.39,23.96 C188.39,23.78 188.39,23.56 188.39,23.31 C188.33,23.52 188.26,23.79 188.19,24 L187.78,25.28 L187.3,25.28 L186.89,23.97 C186.89,23.79 186.77,23.52 186.72,23.31 C186.72,23.53 186.72,23.75 186.72,23.96 L186.64,25.32 L186.19,25.32 L186.36,23.01 L186.93,23.01 L187.33,24.14 C187.33,24.32 187.43,24.49 187.48,24.72 L187.64,24.15 L188.04,23.01 L188.71,23.01 L188.88,25.32 L188.48,25.32 Z" id="Shape" fill="#8DC63F"></path>
            </g>
        </g>
    </g>
</svg>